<?xml version="1.0" encoding="UTF-8"?>
<svg id="Layer_1" data-name="Layer 1" xmlns="http://www.w3.org/2000/svg" xmlns:xlink="http://www.w3.org/1999/xlink" viewBox="0 0 2000 1000">
  <defs>
    <style>
      .cls-1 {
        fill: #563cf9;
      }

      .cls-1, .cls-2, .cls-3, .cls-4, .cls-5, .cls-6, .cls-7, .cls-8, .cls-9, .cls-10, .cls-11, .cls-12, .cls-13, .cls-14, .cls-15, .cls-16, .cls-17, .cls-18, .cls-19, .cls-20, .cls-21, .cls-22, .cls-23, .cls-24, .cls-25, .cls-26, .cls-27, .cls-28, .cls-29, .cls-30, .cls-31, .cls-32, .cls-33, .cls-34, .cls-35, .cls-36, .cls-37, .cls-38, .cls-39, .cls-40, .cls-41, .cls-42, .cls-43, .cls-44, .cls-45, .cls-46, .cls-47, .cls-48, .cls-49, .cls-50, .cls-51, .cls-52, .cls-53, .cls-54, .cls-55, .cls-56, .cls-57, .cls-58, .cls-59, .cls-60, .cls-61, .cls-62, .cls-63, .cls-64, .cls-65, .cls-66, .cls-67, .cls-68, .cls-69, .cls-70, .cls-71, .cls-72, .cls-73, .cls-74, .cls-75, .cls-76, .cls-77, .cls-78, .cls-79, .cls-80, .cls-81, .cls-82, .cls-83, .cls-84, .cls-85, .cls-86, .cls-87, .cls-88, .cls-89, .cls-90, .cls-91, .cls-92, .cls-93, .cls-94, .cls-95, .cls-96, .cls-97, .cls-98, .cls-99, .cls-100, .cls-101, .cls-102, .cls-103, .cls-104, .cls-105, .cls-106, .cls-107, .cls-108, .cls-109, .cls-110, .cls-111, .cls-112, .cls-113, .cls-114, .cls-115, .cls-116, .cls-117, .cls-118, .cls-119, .cls-120, .cls-121, .cls-122, .cls-123, .cls-124, .cls-125, .cls-126 {
        stroke-width: 0px;
      }

      .cls-2 {
        fill: #3379ff;
      }

      .cls-3 {
        fill: #3845fb;
      }

      .cls-4 {
        fill: #7034f7;
      }

      .cls-5 {
        fill: #1550fe;
      }

      .cls-6 {
        fill: #3247fb;
      }

      .cls-7 {
        fill: #6a36f8;
      }

      .cls-8 {
        fill: #3646fb;
      }

      .cls-9 {
        fill: #4541fa;
      }

      .cls-10 {
        fill: #4c3ffa;
      }

      .cls-11 {
        fill: #294afc;
      }

      .cls-12 {
        fill: #7233f7;
      }

      .cls-13 {
        fill: #6936f8;
      }

      .cls-14 {
        fill: #6537f8;
      }

      .cls-15 {
        fill: #5b3af9;
      }

      .cls-16 {
        fill: #3c44fb;
      }

      .cls-127 {
        clip-path: url(#clippath);
      }

      .cls-17 {
        fill: none;
      }

      .cls-18 {
        fill: #4442fa;
      }

      .cls-19 {
        fill: #5e39f8;
      }

      .cls-20 {
        fill: #6f34f7;
      }

      .cls-21 {
        fill: #5f39f8;
      }

      .cls-22 {
        fill: #234cfd;
      }

      .cls-23 {
        fill: #0d53fe;
      }

      .cls-24 {
        fill: #2a4afc;
      }

      .cls-25 {
        fill: #3e44fb;
      }

      .cls-26 {
        fill: #0755ff;
      }

      .cls-27 {
        fill: #3d44fb;
      }

      .cls-28 {
        fill: #264bfc;
      }

      .cls-29 {
        fill: #553cf9;
      }

      .cls-30 {
        fill: #593bf9;
      }

      .cls-31 {
        fill: #274bfc;
      }

      .cls-32 {
        fill: #204dfd;
      }

      .cls-33 {
        fill: #0b53fe;
      }

      .cls-34 {
        fill: #3745fb;
      }

      .cls-35 {
        fill: #6338f8;
      }

      .cls-36 {
        fill: #cdf;
      }

      .cls-37 {
        fill: #f26419;
      }

      .cls-38 {
        fill: #543df9;
      }

      .cls-39 {
        fill: #080225;
      }

      .cls-40 {
        fill: #0456ff;
      }

      .cls-41 {
        fill: #4b3ffa;
      }

      .cls-42 {
        fill: #6b35f7;
      }

      .cls-43 {
        fill: #4043fb;
      }

      .cls-44 {
        fill: #1a4ffd;
      }

      .cls-45 {
        fill: #4940fa;
      }

      .cls-46 {
        fill: #0a54fe;
      }

      .cls-47 {
        fill: #1351fe;
      }

      .cls-48 {
        fill: #0954fe;
      }

      .cls-128 {
        clip-path: url(#clippath-1);
      }

      .cls-129 {
        clip-path: url(#clippath-3);
      }

      .cls-130 {
        clip-path: url(#clippath-2);
      }

      .cls-49 {
        fill: #6e34f7;
      }

      .cls-50 {
        fill: #02eaea;
      }

      .cls-51 {
        fill: #2e48fc;
      }

      .cls-52 {
        fill: #284afc;
      }

      .cls-53 {
        fill: #503ef9;
      }

      .cls-54 {
        fill: #1052fe;
      }

      .cls-55 {
        fill: #573cf9;
      }

      .cls-56 {
        fill: #4d3ffa;
      }

      .cls-57 {
        fill: #060224;
      }

      .cls-58 {
        fill: #2c49fc;
      }

      .cls-59 {
        fill: #669aff;
      }

      .cls-60 {
        fill: #3a45fb;
      }

      .cls-61 {
        fill: #2b49fc;
      }

      .cls-62 {
        fill: #3347fb;
      }

      .cls-63 {
        fill: #0854fe;
      }

      .cls-64 {
        fill: #6437f8;
      }

      .cls-65 {
        fill: #254bfc;
      }

      .cls-66 {
        fill: #1451fe;
      }

      .cls-67 {
        fill: #2d49fc;
      }

      .cls-68 {
        fill: #4741fa;
      }

      .cls-69 {
        fill: #cfdcfc;
      }

      .cls-70 {
        fill: #523df9;
      }

      .cls-71 {
        fill: #3f43fb;
      }

      .cls-72 {
        fill: #4143fa;
      }

      .cls-73 {
        fill: #4a40fa;
      }

      .cls-74 {
        fill: #1152fe;
      }

      .cls-75 {
        fill: #0057ff;
      }

      .cls-76 {
        fill: #6039f8;
      }

      .cls-77 {
        fill: #6138f8;
      }

      .cls-78 {
        fill: #6637f8;
      }

      .cls-79 {
        fill: #4e3efa;
      }

      .cls-80 {
        fill: #7133f7;
      }

      .cls-81 {
        fill: #194ffd;
      }

      .cls-82 {
        fill: #6836f8;
      }

      .cls-83 {
        fill: #513ef9;
      }

      .cls-84 {
        fill: #533df9;
      }

      .cls-85 {
        fill: #3546fb;
      }

      .cls-86 {
        fill: #4342fa;
      }

      .cls-87 {
        fill: #0256ff;
      }

      .cls-88 {
        fill: #184ffd;
      }

      .cls-89 {
        fill: #214cfd;
      }

      .cls-90 {
        fill: #5c3af9;
      }

      .cls-91 {
        fill: #0e53fe;
      }

      .cls-92 {
        fill: #0655ff;
      }

      .cls-93 {
        fill: #4242fa;
      }

      .cls-94 {
        fill: #583bf9;
      }

      .cls-95 {
        fill: #3b45fb;
      }

      .cls-96 {
        fill: #3446fb;
      }

      .cls-97 {
        fill: #1650fd;
      }

      .cls-98 {
        fill: #1251fe;
      }

      .cls-99 {
        fill: #4f3ef9;
      }

      .cls-100 {
        fill: #2f48fc;
      }

      .cls-101 {
        fill: #1e4dfd;
      }

      .cls-102 {
        fill: #0f52fe;
      }

      .cls-103 {
        fill: #1c4efd;
      }

      .cls-104 {
        fill: #1750fd;
      }

      .cls-105 {
        fill: #0057ff;
      }

      .cls-106 {
        fill: #1f4dfd;
      }

      .cls-107 {
        fill: #6238f8;
      }

      .cls-108 {
        fill: #6d35f7;
      }

      .cls-109 {
        fill: #ffae2d;
      }

      .cls-110 {
        fill: #0555ff;
      }

      .cls-111 {
        fill: #3147fc;
      }

      .cls-112 {
        fill: #5a3bf9;
      }

      .cls-113 {
        fill: #3048fc;
      }

      .cls-114 {
        fill: #fff;
      }

      .cls-115 {
        fill: #4840fa;
      }

      .cls-116 {
        fill: #5d3af8;
      }

      .cls-117 {
        fill: #0356ff;
      }

      .cls-118 {
        fill: #0157ff;
      }

      .cls-119 {
        fill: #1b4efd;
      }

      .cls-120 {
        fill: #1d4efd;
      }

      .cls-121 {
        fill: #6c35f7;
      }

      .cls-122 {
        fill: #244cfc;
      }

      .cls-123 {
        fill: #6737f8;
      }

      .cls-124 {
        fill: #4641fa;
      }

      .cls-125 {
        fill: #224cfd;
      }

      .cls-126 {
        fill: #0c53fe;
      }
    </style>
    <clipPath id="clippath">
      <rect class="cls-17" x="938.7" y="138.79" width="252.81" height="252.81" rx="9.53" ry="9.53"/>
    </clipPath>
    <clipPath id="clippath-1">
      <circle class="cls-17" cx="1842.79" cy="264.71" r="78.83"/>
    </clipPath>
    <clipPath id="clippath-2">
      <path class="cls-17" d="M1534.03,562.64c.54,5.59,1.28,12.12,2.29,19.39-4.6,2.6-15.61,8-30.55,7.62-15.12-.39-25.92-6.48-30.37-9.33,2.49-16.29,4.54-36.08,4.86-58.67.01-.15.01-.3.01-.45,0-.36.01-.72.01-1.08.03-3.16.03-6.26-.01-9.31-.05-5.01-.19-9.88-.4-14.59-.18-4.01-.41-7.92-.69-11.71-.01-.19-.02-.38-.04-.57-.05-.78-.12-1.55-.17-2.32-.33-4.18-.71-8.21-1.13-12.09-.32-2.91-.65-5.75-1-8.49-.56-4.41-1.17-8.6-1.8-12.55h61.37c-1.73,12.44-3.24,26.73-4.04,42.62-.05,1.16-.11,2.33-.16,3.5-.24,5.55-.39,11.28-.44,17.19-.01,1.04-.02,2.08-.02,3.15h0c0,1.06,0,2.12.01,3.18.01,2.63.04,5.28.1,7.97.07,3.09.17,6.14.3,9.14,0,.09,0,.17.01.24.06,1.64.14,3.26.22,4.87.39,7.8.96,15.25,1.65,22.31Z"/>
    </clipPath>
    <clipPath id="clippath-3">
      <path class="cls-17" d="M1587.01,443.75c0-7.54-5.58-13.76-12.83-14.82,5.11-4.41,8.34-10.93,8.34-18.2,0-12.05-8.87-22.04-20.44-23.78.17-1.15.26-2.32.26-3.51,0-13.28-10.77-24.05-24.05-24.05-6.99,0-13.29,2.99-17.68,7.75-3.35-9.26-12.21-15.88-22.62-15.88-11.26,0-20.71,7.74-23.33,18.19-2.39-.8-4.95-1.24-7.61-1.24-13.28,0-24.05,10.77-24.05,24.05,0,1.53.15,3.02.42,4.46-.89-.17-1.81-.26-2.75-.26-8.28,0-14.99,6.71-14.99,14.99,0,5.69,3.17,10.64,7.85,13.18-3.38,4.14-5.41,9.43-5.41,15.2,0,13.28,10.77,24.05,24.05,24.05.08,0,.15,0,.22,0,1.41,2.05,2.82,4.46,4.03,7.29,1.85,4.34,2.67,8.28,3.04,11.26,1.87.43,2.86,0,3.35-.3,3.36-2.11.68-9.69-1.07-20.23,2.88-1.25,5.46-3.05,7.62-5.26,3.78,2.48,8.31,3.93,13.17,3.93,9.66,0,17.99-5.7,21.81-13.92,1.12.16,2.27.25,3.44.25,9.37,0,17.48-5.36,21.45-13.18.26-.08.51-.17.76-.25.46,7.81,6.89,14.01,14.8,14.08-.47,1.46-.73,3.01-.73,4.62,0,4.53,2.02,8.58,5.19,11.33-1.39,10.09-3.47,17.57.34,19.98.5.32,1.5.79,3.24.65-.12-2.7-.16-10.26,4.15-17.12.68.09,1.36.16,2.07.16,5.93,0,11.04-3.45,13.47-8.44,8.05-.26,14.5-6.85,14.5-14.96Z"/>
    </clipPath>
  </defs>
  <rect class="cls-57" x="-57.16" y="-39.35" width="2096.54" height="1074.68"/>
  <g>
    <path class="cls-114" d="M147.53,474.79v-58.4h34.71v4.17h-30.2v23.11h25.2v4.17h-25.2v26.95h-4.51Z"/>
    <path class="cls-114" d="M191.24,423.48c-.83,0-1.53-.28-2.09-.83-.56-.55-.83-1.25-.83-2.09,0-.89.28-1.61.83-2.17.56-.56,1.25-.83,2.09-.83s1.54.28,2.13.83c.58.56.88,1.28.88,2.17,0,.83-.29,1.53-.88,2.09-.58.56-1.29.83-2.13.83ZM189.16,474.79v-42.3h4.25v42.3h-4.25Z"/>
    <path class="cls-114" d="M203.42,474.79v-42.3h3.67l.58,9.68c1.17-3,3.03-5.45,5.59-7.34,2.56-1.89,5.78-2.84,9.68-2.84,3.23,0,6.09.67,8.59,2s4.48,3.41,5.92,6.22c1.45,2.81,2.17,6.44,2.17,10.89v23.69h-4.25v-23.53c0-5.01-1.16-8.82-3.46-11.43-2.31-2.61-5.52-3.92-9.64-3.92-3,0-5.6.74-7.8,2.21-2.2,1.47-3.88,3.56-5.05,6.26-1.17,2.7-1.75,5.88-1.75,9.55v20.86h-4.25Z"/>
    <path class="cls-114" d="M266.75,475.3c-3.84,0-7.26-.88-10.26-2.63-3-1.75-5.37-4.25-7.09-7.51-1.72-3.25-2.59-7.1-2.59-11.55s.86-7.98,2.59-11.26c1.72-3.28,4.09-5.83,7.09-7.63,3-1.81,6.42-2.71,10.26-2.71,4.06,0,7.48.97,10.26,2.92,2.78,1.95,4.76,4.5,5.92,7.68v-26.2h4.25v58.4h-3.67l-.58-10.26c-1.22,3.12-3.21,5.69-5.97,7.72-2.75,2.03-6.16,3.05-10.22,3.05ZM267.08,471.46c3.17,0,5.95-.76,8.34-2.29,2.39-1.53,4.25-3.63,5.59-6.3s2-5.73,2-9.18-.67-6.6-2-9.3c-1.33-2.7-3.2-4.81-5.59-6.34-2.39-1.53-5.17-2.29-8.34-2.29s-5.95.77-8.34,2.29c-2.39,1.53-4.25,3.63-5.59,6.3-1.33,2.67-2,5.76-2,9.26s.67,6.59,2,9.26c1.33,2.67,3.2,4.77,5.59,6.3,2.39,1.53,5.17,2.29,8.34,2.29Z"/>
    <path class="cls-114" d="M332.82,475.3c-2.95,0-5.55-.49-7.8-1.46-2.25-.97-4-2.36-5.26-4.17-1.25-1.81-1.88-3.96-1.88-6.47,0-3.95,1.43-7.04,4.3-9.26,2.86-2.22,6.99-3.34,12.39-3.34h14.35v-3.67c0-3.5-1.07-6.24-3.21-8.22-2.14-1.97-5.21-2.96-9.22-2.96-3.56,0-6.44.79-8.64,2.38-2.2,1.58-3.57,3.66-4.13,6.22h-4.26c.39-2.56,1.33-4.76,2.84-6.59,1.5-1.84,3.46-3.25,5.88-4.25,2.42-1,5.24-1.5,8.47-1.5,5.34,0,9.43,1.32,12.26,3.96,2.84,2.64,4.26,6.35,4.26,11.14v19.69c0,1.67.32,2.77.96,3.3.64.53,1.57.79,2.8.79h1.58v3.92h-2.5c-2.34,0-4.08-.5-5.21-1.5-1.14-1-1.71-2.64-1.71-4.92v-2.42c-1.22,2.67-3.14,4.9-5.76,6.67-2.61,1.78-6.12,2.67-10.51,2.67ZM333.16,471.62c3.34,0,6.17-.6,8.51-1.79,2.34-1.2,4.13-2.85,5.38-4.96,1.25-2.11,1.88-4.5,1.88-7.17v-3.42h-14.68c-3.95,0-6.94.75-8.97,2.25-2.03,1.5-3.05,3.64-3.05,6.42,0,2.62.99,4.71,2.96,6.3,1.97,1.58,4.63,2.38,7.97,2.38Z"/>
    <path class="cls-114" d="M364.19,474.79v-42.3h3.67l.58,9.68c1.17-3,3.03-5.45,5.59-7.34,2.56-1.89,5.78-2.84,9.68-2.84,3.23,0,6.09.67,8.59,2s4.48,3.41,5.92,6.22c1.45,2.81,2.17,6.44,2.17,10.89v23.69h-4.25v-23.53c0-5.01-1.16-8.82-3.46-11.43-2.31-2.61-5.52-3.92-9.64-3.92-3,0-5.6.74-7.8,2.21-2.2,1.47-3.88,3.56-5.05,6.26-1.17,2.7-1.75,5.88-1.75,9.55v20.86h-4.25Z"/>
    <path class="cls-114" d="M427.52,475.3c-3.84,0-7.26-.88-10.26-2.63-3-1.75-5.37-4.25-7.09-7.51-1.72-3.25-2.59-7.1-2.59-11.55s.86-7.98,2.59-11.26c1.72-3.28,4.09-5.83,7.09-7.63,3-1.81,6.42-2.71,10.26-2.71,4.06,0,7.48.97,10.26,2.92,2.78,1.95,4.76,4.5,5.92,7.68v-26.2h4.25v58.4h-3.67l-.58-10.26c-1.22,3.12-3.21,5.69-5.97,7.72-2.75,2.03-6.16,3.05-10.22,3.05ZM427.85,471.46c3.17,0,5.95-.76,8.34-2.29,2.39-1.53,4.25-3.63,5.59-6.3s2-5.73,2-9.18-.67-6.6-2-9.3c-1.33-2.7-3.2-4.81-5.59-6.34-2.39-1.53-5.17-2.29-8.34-2.29s-5.95.77-8.34,2.29c-2.39,1.53-4.25,3.63-5.59,6.3-1.33,2.67-2,5.76-2,9.26s.67,6.59,2,9.26c1.33,2.67,3.2,4.77,5.59,6.3,2.39,1.53,5.17,2.29,8.34,2.29Z"/>
    <path class="cls-114" d="M501.02,475.3c-4.34,0-8.09-.76-11.26-2.29-3.17-1.53-5.65-3.68-7.43-6.47-1.78-2.78-2.78-6.01-3-9.68h4.67c.28,4.34,1.96,7.82,5.05,10.43,3.09,2.62,7.1,3.92,12.06,3.92s8.54-1.07,11.43-3.21c2.89-2.14,4.34-5.08,4.34-8.8,0-2.17-.47-3.93-1.42-5.3-.95-1.36-2.23-2.46-3.84-3.3-1.61-.83-3.46-1.5-5.55-2-2.09-.5-4.27-.95-6.55-1.33-2.34-.39-4.63-.89-6.88-1.5-2.25-.61-4.28-1.46-6.09-2.54-1.81-1.08-3.24-2.52-4.3-4.3-1.06-1.78-1.58-4.06-1.58-6.84,0-3.34.81-6.22,2.42-8.63,1.61-2.42,3.89-4.28,6.84-5.59,2.95-1.31,6.4-1.96,10.35-1.96s7.48.7,10.43,2.09c2.95,1.39,5.27,3.32,6.97,5.8,1.7,2.47,2.68,5.38,2.96,8.72h-4.59c-.5-3.84-2.16-6.88-4.96-9.14-2.81-2.25-6.41-3.38-10.8-3.38s-8.22,1.03-10.97,3.09c-2.75,2.06-4.13,4.98-4.13,8.76,0,2.06.44,3.75,1.33,5.09.89,1.33,2.11,2.39,3.67,3.17,1.56.78,3.34,1.39,5.34,1.83,2,.45,4.12.86,6.34,1.25,2.39.39,4.76.9,7.09,1.54,2.34.64,4.43,1.53,6.3,2.67,1.86,1.14,3.35,2.63,4.46,4.46,1.11,1.83,1.67,4.14,1.67,6.92,0,3.28-.85,6.16-2.54,8.63-1.7,2.48-4.06,4.41-7.09,5.8-3.03,1.39-6.61,2.09-10.72,2.09Z"/>
    <path class="cls-114" d="M548.99,475.3c-3.95,0-7.45-.92-10.51-2.75-3.06-1.83-5.45-4.38-7.18-7.63-1.72-3.25-2.59-7.02-2.59-11.3s.86-8.04,2.59-11.26c1.72-3.22,4.12-5.76,7.18-7.59,3.06-1.84,6.56-2.75,10.51-2.75s7.61.92,10.64,2.75c3.03,1.84,5.41,4.37,7.13,7.59,1.72,3.23,2.59,6.98,2.59,11.26s-.86,8.05-2.59,11.3c-1.72,3.25-4.1,5.8-7.13,7.63-3.03,1.84-6.58,2.75-10.64,2.75ZM548.99,471.46c3.17,0,5.95-.76,8.34-2.29,2.39-1.53,4.25-3.63,5.59-6.3s2-5.76,2-9.26-.67-6.59-2-9.26-3.2-4.77-5.59-6.3c-2.39-1.53-5.17-2.29-8.34-2.29s-5.95.77-8.34,2.29c-2.39,1.53-4.25,3.63-5.59,6.3-1.33,2.67-2,5.76-2,9.26s.67,6.59,2,9.26c1.33,2.67,3.2,4.77,5.59,6.3,2.39,1.53,5.17,2.29,8.34,2.29Z"/>
    <path class="cls-114" d="M577.77,474.79v-58.4h4.25v58.4h-4.25Z"/>
    <path class="cls-114" d="M604.3,474.79l-16.52-42.3h4.59l14.6,37.38,14.52-37.38h4.42l-16.52,42.3h-5.09Z"/>
    <path class="cls-114" d="M648.69,475.3c-4,0-7.52-.92-10.55-2.75-3.03-1.83-5.41-4.39-7.13-7.68-1.72-3.28-2.59-7.12-2.59-11.51s.82-7.94,2.46-11.14c1.64-3.2,3.93-5.7,6.88-7.51,2.95-1.81,6.34-2.71,10.18-2.71s7.1.78,9.97,2.34c2.86,1.56,5.14,3.82,6.84,6.8,1.7,2.98,2.6,6.58,2.71,10.8,0,.28-.01.57-.04.88-.03.31-.04.6-.04.88h-34.54v.75c.11,3.28.79,6.2,2.04,8.76,1.25,2.56,3.03,4.58,5.34,6.05,2.31,1.47,5.02,2.21,8.13,2.21,3.45,0,6.47-.96,9.05-2.88s4.3-4.52,5.13-7.8h4.34c-.61,2.84-1.77,5.35-3.46,7.55-1.7,2.2-3.8,3.91-6.3,5.13-2.5,1.22-5.31,1.84-8.43,1.84ZM633.17,450.1h29.7c-.33-4.62-1.86-8.16-4.59-10.64-2.73-2.47-6.15-3.71-10.26-3.71-2.61,0-5.01.6-7.17,1.79-2.17,1.2-3.94,2.87-5.3,5.01-1.36,2.14-2.16,4.66-2.38,7.55Z"/>
    <path class="cls-114" d="M172.22,575.41c-5.45,0-10.18-1.25-14.18-3.75-4-2.5-7.11-5.98-9.3-10.43-2.2-4.45-3.3-9.62-3.3-15.52s1.11-11,3.34-15.48c2.22-4.48,5.38-7.97,9.47-10.47,4.09-2.5,8.86-3.75,14.31-3.75,4.12,0,7.79.72,11.01,2.17,3.23,1.45,5.94,3.55,8.13,6.3,2.2,2.75,3.71,6.08,4.55,9.97h-4.76c-1.28-4.56-3.57-8.08-6.88-10.55-3.31-2.47-7.41-3.71-12.31-3.71-4.45,0-8.36,1.08-11.72,3.25-3.37,2.17-5.95,5.19-7.76,9.05-1.81,3.87-2.71,8.27-2.71,13.22s.89,9.43,2.67,13.27c1.78,3.84,4.32,6.84,7.63,9.01,3.31,2.17,7.22,3.25,11.72,3.25,5.01,0,9.15-1.24,12.43-3.71,3.28-2.47,5.53-6.02,6.76-10.64h4.76c-.83,3.89-2.34,7.23-4.51,10.01-2.17,2.78-4.9,4.9-8.18,6.34-3.28,1.45-7.01,2.17-11.18,2.17Z"/>
    <path class="cls-114" d="M204.76,574.91v-58.4h4.25v26.53c1.17-3.22,3.03-5.85,5.59-7.88,2.56-2.03,5.78-3.04,9.68-3.04,3.23,0,6.09.67,8.59,2s4.48,3.41,5.92,6.22c1.45,2.81,2.17,6.44,2.17,10.89v23.69h-4.25v-23.53c0-5.01-1.17-8.82-3.5-11.43-2.34-2.61-5.54-3.92-9.59-3.92-3,0-5.6.74-7.8,2.21-2.2,1.47-3.88,3.56-5.05,6.26-1.17,2.7-1.75,5.88-1.75,9.55v20.86h-4.25Z"/>
    <path class="cls-114" d="M263.58,575.41c-2.95,0-5.55-.49-7.8-1.46-2.25-.97-4-2.36-5.26-4.17-1.25-1.81-1.88-3.96-1.88-6.47,0-3.95,1.43-7.04,4.3-9.26,2.86-2.22,6.99-3.34,12.39-3.34h14.35v-3.67c0-3.5-1.07-6.24-3.21-8.22-2.14-1.97-5.21-2.96-9.22-2.96-3.56,0-6.44.79-8.64,2.38-2.2,1.58-3.57,3.66-4.13,6.22h-4.26c.39-2.56,1.33-4.76,2.84-6.59,1.5-1.84,3.46-3.25,5.88-4.25,2.42-1,5.24-1.5,8.47-1.5,5.34,0,9.43,1.32,12.26,3.96,2.84,2.64,4.26,6.35,4.26,11.14v19.69c0,1.67.32,2.77.96,3.3.64.53,1.57.79,2.8.79h1.58v3.92h-2.5c-2.34,0-4.08-.5-5.21-1.5-1.14-1-1.71-2.64-1.71-4.92v-2.42c-1.22,2.67-3.14,4.9-5.76,6.67-2.61,1.78-6.12,2.67-10.51,2.67ZM263.91,571.74c3.34,0,6.17-.6,8.51-1.79,2.34-1.2,4.13-2.85,5.38-4.96,1.25-2.11,1.88-4.5,1.88-7.17v-3.42h-14.68c-3.95,0-6.94.75-8.97,2.25-2.03,1.5-3.05,3.64-3.05,6.42,0,2.62.99,4.71,2.96,6.3,1.97,1.58,4.63,2.38,7.97,2.38Z"/>
    <path class="cls-114" d="M294.95,574.91v-58.4h4.25v58.4h-4.25Z"/>
    <path class="cls-114" d="M309.21,574.91v-58.4h4.25v58.4h-4.25Z"/>
    <path class="cls-114" d="M342.17,575.41c-4,0-7.52-.92-10.55-2.75-3.03-1.83-5.41-4.39-7.13-7.68-1.72-3.28-2.59-7.12-2.59-11.51s.82-7.94,2.46-11.14c1.64-3.2,3.93-5.7,6.88-7.51,2.95-1.81,6.34-2.71,10.18-2.71s7.1.78,9.97,2.34c2.86,1.56,5.14,3.82,6.84,6.8,1.7,2.98,2.6,6.58,2.71,10.8,0,.28-.01.57-.04.88-.03.31-.04.6-.04.88h-34.54v.75c.11,3.28.79,6.2,2.04,8.76,1.25,2.56,3.03,4.58,5.34,6.05,2.31,1.47,5.02,2.21,8.13,2.21,3.45,0,6.47-.96,9.05-2.88s4.3-4.52,5.13-7.8h4.34c-.61,2.84-1.77,5.35-3.46,7.55-1.7,2.2-3.8,3.91-6.3,5.13-2.5,1.22-5.31,1.84-8.43,1.84ZM326.65,550.22h29.7c-.33-4.62-1.86-8.16-4.59-10.64-2.73-2.47-6.15-3.71-10.26-3.71-2.61,0-5.01.6-7.17,1.79-2.17,1.2-3.94,2.87-5.3,5.01-1.36,2.14-2.16,4.66-2.38,7.55Z"/>
    <path class="cls-114" d="M369.36,574.91v-42.3h3.67l.58,9.68c1.17-3,3.03-5.45,5.59-7.34,2.56-1.89,5.78-2.84,9.68-2.84,3.23,0,6.09.67,8.59,2s4.48,3.41,5.92,6.22c1.45,2.81,2.17,6.44,2.17,10.89v23.69h-4.25v-23.53c0-5.01-1.16-8.82-3.46-11.43-2.31-2.61-5.52-3.92-9.64-3.92-3,0-5.6.74-7.8,2.21-2.2,1.47-3.88,3.56-5.05,6.26-1.17,2.7-1.75,5.88-1.75,9.55v20.86h-4.25Z"/>
    <path class="cls-114" d="M433.69,592.1c-3.45,0-6.51-.53-9.18-1.58-2.67-1.06-4.84-2.62-6.51-4.67-1.67-2.06-2.73-4.59-3.17-7.59h4.42c.67,3.23,2.29,5.7,4.88,7.43,2.59,1.72,5.88,2.59,9.89,2.59,5.12,0,8.98-1.28,11.6-3.84,2.61-2.56,3.92-6.65,3.92-12.26v-7.84c-1.22,3.34-3.21,6.02-5.97,8.05-2.75,2.03-6.16,3.05-10.22,3.05-3.84,0-7.26-.88-10.26-2.63-3-1.75-5.37-4.25-7.09-7.51-1.72-3.25-2.59-7.1-2.59-11.55s.85-8.05,2.54-11.3c1.7-3.25,4.05-5.78,7.05-7.59,3-1.81,6.45-2.71,10.35-2.71s7.47,1,10.22,3c2.75,2,4.74,4.67,5.97,8.01l.58-10.51h3.67v39.71c0,4.39-.72,8.06-2.17,11.01-1.45,2.95-3.66,5.14-6.63,6.59-2.98,1.45-6.75,2.17-11.31,2.17ZM433.69,571.57c3.17,0,5.95-.76,8.34-2.29,2.39-1.53,4.25-3.63,5.59-6.3s2-5.73,2-9.18-.67-6.67-2-9.34-3.2-4.77-5.59-6.3c-2.39-1.53-5.17-2.29-8.34-2.29s-5.95.77-8.34,2.29c-2.39,1.53-4.25,3.63-5.59,6.3-1.33,2.67-2,5.76-2,9.26s.67,6.52,2,9.22c1.33,2.7,3.2,4.81,5.59,6.34,2.39,1.53,5.17,2.29,8.34,2.29Z"/>
    <path class="cls-114" d="M482.49,575.41c-4,0-7.52-.92-10.55-2.75-3.03-1.83-5.41-4.39-7.13-7.68-1.72-3.28-2.59-7.12-2.59-11.51s.82-7.94,2.46-11.14c1.64-3.2,3.93-5.7,6.88-7.51,2.95-1.81,6.34-2.71,10.18-2.71s7.1.78,9.97,2.34c2.86,1.56,5.14,3.82,6.84,6.8,1.7,2.98,2.6,6.58,2.71,10.8,0,.28-.01.57-.04.88-.03.31-.04.6-.04.88h-34.54v.75c.11,3.28.79,6.2,2.04,8.76,1.25,2.56,3.03,4.58,5.34,6.05,2.31,1.47,5.02,2.21,8.13,2.21,3.45,0,6.47-.96,9.05-2.88s4.3-4.52,5.13-7.8h4.34c-.61,2.84-1.77,5.35-3.46,7.55-1.7,2.2-3.8,3.91-6.3,5.13-2.5,1.22-5.31,1.84-8.43,1.84ZM466.98,550.22h29.7c-.33-4.62-1.86-8.16-4.59-10.64-2.73-2.47-6.15-3.71-10.26-3.71-2.61,0-5.01.6-7.17,1.79-2.17,1.2-3.94,2.87-5.3,5.01-1.36,2.14-2.16,4.66-2.38,7.55Z"/>
    <path class="cls-114" d="M525.71,575.41c-5.28,0-9.57-1.15-12.85-3.46-3.28-2.31-5.01-5.66-5.17-10.05h4.34c.17,3,1.47,5.4,3.92,7.18,2.45,1.78,5.7,2.67,9.76,2.67,2.34,0,4.42-.33,6.26-1,1.84-.67,3.28-1.61,4.34-2.84,1.06-1.22,1.59-2.67,1.59-4.34,0-2.06-.57-3.62-1.71-4.67-1.14-1.06-2.7-1.82-4.67-2.29-1.97-.47-4.13-.88-6.47-1.21-2.23-.28-4.31-.64-6.26-1.08-1.95-.44-3.69-1.04-5.21-1.79-1.53-.75-2.75-1.81-3.67-3.17-.92-1.36-1.38-3.1-1.38-5.21,0-2.45.69-4.56,2.09-6.34,1.39-1.78,3.3-3.17,5.72-4.17,2.42-1,5.21-1.5,8.38-1.5,4.56,0,8.38,1.03,11.47,3.09,3.09,2.06,4.82,5.17,5.21,9.34h-4.34c-.33-2.78-1.63-4.94-3.88-6.47-2.25-1.53-5.08-2.29-8.47-2.29-3.56,0-6.44.72-8.64,2.17-2.2,1.45-3.3,3.39-3.3,5.84,0,1.95.57,3.42,1.71,4.42,1.14,1,2.67,1.7,4.59,2.09,1.92.39,3.96.75,6.13,1.08,3.06.39,5.87.95,8.43,1.67,2.56.72,4.62,1.86,6.17,3.42,1.56,1.56,2.34,3.84,2.34,6.84,0,2.45-.74,4.59-2.21,6.42-1.47,1.84-3.45,3.24-5.92,4.21-2.48.97-5.24,1.46-8.3,1.46Z"/>
    <path class="cls-114" d="M591.45,575.41c-3.95,0-7.45-.92-10.51-2.75-3.06-1.83-5.45-4.38-7.18-7.63-1.72-3.25-2.59-7.02-2.59-11.3s.86-8.04,2.59-11.26c1.72-3.22,4.12-5.76,7.18-7.59,3.06-1.84,6.56-2.75,10.51-2.75s7.61.92,10.64,2.75c3.03,1.84,5.41,4.37,7.13,7.59,1.72,3.23,2.59,6.98,2.59,11.26s-.86,8.05-2.59,11.3c-1.72,3.25-4.1,5.8-7.13,7.63-3.03,1.84-6.58,2.75-10.64,2.75ZM591.45,571.57c3.17,0,5.95-.76,8.34-2.29,2.39-1.53,4.25-3.63,5.59-6.3s2-5.76,2-9.26-.67-6.59-2-9.26-3.2-4.77-5.59-6.3c-2.39-1.53-5.17-2.29-8.34-2.29s-5.95.77-8.34,2.29c-2.39,1.53-4.25,3.63-5.59,6.3-1.33,2.67-2,5.76-2,9.26s.67,6.59,2,9.26c1.33,2.67,3.2,4.77,5.59,6.3,2.39,1.53,5.17,2.29,8.34,2.29Z"/>
    <path class="cls-114" d="M620.24,574.91v-42.3h3.67l.58,9.68c1.17-3,3.03-5.45,5.59-7.34,2.56-1.89,5.78-2.84,9.68-2.84,3.23,0,6.09.67,8.59,2s4.48,3.41,5.92,6.22c1.45,2.81,2.17,6.44,2.17,10.89v23.69h-4.25v-23.53c0-5.01-1.16-8.82-3.46-11.43-2.31-2.61-5.52-3.92-9.64-3.92-3,0-5.6.74-7.8,2.21-2.2,1.47-3.88,3.56-5.05,6.26-1.17,2.7-1.75,5.88-1.75,9.55v20.86h-4.25Z"/>
    <path class="cls-114" d="M684.81,574.91l22.61-58.4h5.26l22.53,58.4h-4.84l-7.01-17.85h-26.86l-7.01,17.85h-4.67ZM697.83,552.89h24.19l-12.1-31.37-12.1,31.37Z"/>
    <path class="cls-114" d="M741.63,574.91v-42.3h3.67l.58,9.09c.83-2.56,2.21-4.71,4.13-6.47,1.92-1.75,4.88-2.63,8.89-2.63h2.25v4.09h-3.09c-3.28,0-5.81.81-7.59,2.42-1.78,1.61-2.99,3.69-3.63,6.22-.64,2.53-.96,5.24-.96,8.13v21.44h-4.25Z"/>
    <path class="cls-114" d="M767.49,574.91v-42.3h3.67l.58,9.84c.95-2.95,2.56-5.41,4.84-7.38,2.28-1.97,5.28-2.96,9.01-2.96,3.39,0,6.33.95,8.8,2.84,2.47,1.89,4.16,4.65,5.05,8.26,1.11-3.28,2.95-5.95,5.51-8.01,2.56-2.06,5.81-3.09,9.76-3.09,2.95,0,5.6.64,7.97,1.92,2.36,1.28,4.23,3.25,5.59,5.92,1.36,2.67,2.04,6.15,2.04,10.43v24.53h-4.34v-24.36c0-4.78-1.04-8.4-3.13-10.85-2.09-2.45-4.96-3.67-8.64-3.67-3.95,0-7.09,1.43-9.43,4.3-2.34,2.87-3.59,6.72-3.75,11.55v23.03h-4.25v-23.94c0-4.89-1.06-8.61-3.17-11.14-2.11-2.53-5.03-3.8-8.76-3.8-2.67,0-4.99.72-6.97,2.17-1.98,1.45-3.49,3.48-4.55,6.09-1.06,2.62-1.59,5.65-1.59,9.09v21.53h-4.25Z"/>
  </g>
  <path class="cls-114" d="M1819.6,710.37h-67.34v-1.85h67.34c12.63,0,22.9-10.27,22.9-22.9v-382.44h1.85v382.44c0,13.65-11.1,24.75-24.75,24.75Z"/>
  <path class="cls-114" d="M1446.98,710.37h-357.66c-13.65,0-24.75-11.1-24.75-24.75v-166.56h1.85v166.56c0,12.63,10.27,22.9,22.9,22.9h357.66v1.85Z"/>
  <g>
    <path class="cls-2" d="M1726.59,697.05c-26.61-26.04-51.52-43.99-68.12-54.92-40.74-18.7-81.43-37.36-122.16-56.06-20.27-.57-40.66-1.14-60.92-1.71-39.65,19.27-79.21,38.5-118.86,57.77-16.6,10.94-41.5,28.88-68.12,54.92-17.34,16.96-110.17,107.23-87.62,148.63,4,7.34,17.44,23.83,74.92,21.61,170.54.05,341.07.1,511.61.16,6.14-4.11,12.28-8.21,18.42-12.32,4.71-3.47,7.15-7.03,8.47-9.45,22.36-40.83-68.23-129.66-87.62-148.63Z"/>
    <path class="cls-114" d="M1780.19,801.47c-.12,0-.23-.03-.34-.08-29.82-15.63-61.8-24.63-95.05-26.77-52.98-3.4-95.78,11.79-122.37,25.13-.36.18-.81.04-.99-.33-.18-.36-.04-.81.33-.99,26.74-13.42,69.81-28.71,123.12-25.28,33.46,2.15,65.64,11.21,95.64,26.93.36.19.5.64.31,1-.13.25-.39.4-.66.4Z"/>
    <g>
      <path class="cls-114" d="M1228.94,801.47c-.27,0-.52-.14-.66-.4-.19-.36-.05-.81.31-1,30-15.73,62.18-24.79,95.64-26.93,53.31-3.43,96.38,11.86,123.12,25.28.37.18.51.63.33.99-.18.36-.63.51-.99.33-26.58-13.34-69.39-28.53-122.37-25.13-33.25,2.13-65.23,11.14-95.05,26.77-.11.06-.23.08-.34.08Z"/>
      <path class="cls-114" d="M1342.09,774.04c-.11,0-.21-.02-.31-.07-.37-.17-.53-.62-.35-.98,19.23-40.73,27.68-81.9,25.14-122.38-.27-4.25-.66-8.56-1.17-12.8-.05-.41.24-.77.65-.82.41-.05.77.24.82.65.51,4.27.91,8.6,1.18,12.88,2.56,40.73-5.94,82.15-25.28,123.11-.13.27-.39.42-.67.42Z"/>
    </g>
  </g>
  <path class="cls-114" d="M1304.1,519.99h-278.59c-13.64,0-24.74-11.1-24.75-24.73l-.16-278.1c0-8.66,7.05-15.71,15.71-15.71h278.75c13.65,0,24.75,11.1,24.75,24.75v278.09c0,8.66-7.05,15.71-15.71,15.71ZM1016.31,203.29c-7.64,0-13.86,6.22-13.86,13.86l.16,278.1c0,12.62,10.28,22.89,22.9,22.89h278.59c7.64,0,13.86-6.22,13.86-13.86V226.19c0-12.63-10.27-22.9-22.9-22.9h-278.75Z"/>
  <g>
    <rect class="cls-36" x="1129.08" y="329.17" width="252.97" height="252.89" rx="9.53" ry="9.53"/>
    <g>
      <rect class="cls-114" x="1153.23" y="508.06" width="153.3" height="49.31" rx="24.66" ry="24.66"/>
      <rect class="cls-59" x="1153.23" y="353.86" width="201.61" height="49.31" rx="24.66" ry="24.66"/>
      <rect class="cls-105" x="1153.23" y="430.96" width="100.52" height="49.31" rx="24.66" ry="24.66"/>
    </g>
  </g>
  <g>
    <g class="cls-127">
      <rect class="cls-12" x="938.7" y="138.79" width="5.68" height="252.81"/>
      <rect class="cls-12" x="944.38" y="138.79" width="2.17" height="252.81"/>
      <rect class="cls-80" x="946.55" y="138.79" width="2.17" height="252.81"/>
      <rect class="cls-4" x="948.71" y="138.79" width="2.17" height="252.81"/>
      <rect class="cls-20" x="950.88" y="138.79" width="2.17" height="252.81"/>
      <rect class="cls-49" x="953.05" y="138.79" width="2.17" height="252.81"/>
      <rect class="cls-108" x="955.22" y="138.79" width="2.17" height="252.81"/>
      <rect class="cls-121" x="957.39" y="138.79" width="2.17" height="252.81"/>
      <rect class="cls-42" x="959.55" y="138.79" width="2.17" height="252.81"/>
      <rect class="cls-7" x="961.72" y="138.79" width="2.17" height="252.81"/>
      <rect class="cls-13" x="963.89" y="138.79" width="2.17" height="252.81"/>
      <rect class="cls-82" x="966.06" y="138.79" width="2.17" height="252.81"/>
      <rect class="cls-123" x="968.22" y="138.79" width="2.17" height="252.81"/>
      <rect class="cls-78" x="970.39" y="138.79" width="2.17" height="252.81"/>
      <rect class="cls-14" x="972.56" y="138.79" width="2.17" height="252.81"/>
      <rect class="cls-64" x="974.73" y="138.79" width="2.17" height="252.81"/>
      <rect class="cls-35" x="976.9" y="138.79" width="2.17" height="252.81"/>
      <rect class="cls-107" x="979.06" y="138.79" width="2.17" height="252.81"/>
      <rect class="cls-77" x="981.23" y="138.79" width="2.17" height="252.81"/>
      <rect class="cls-76" x="983.4" y="138.79" width="2.17" height="252.81"/>
      <rect class="cls-21" x="985.57" y="138.79" width="2.17" height="252.81"/>
      <rect class="cls-19" x="987.73" y="138.79" width="2.17" height="252.81"/>
      <rect class="cls-116" x="989.9" y="138.79" width="2.17" height="252.81"/>
      <rect class="cls-90" x="992.07" y="138.79" width="2.17" height="252.81"/>
      <rect class="cls-15" x="994.24" y="138.79" width="2.17" height="252.81"/>
      <rect class="cls-112" x="996.41" y="138.79" width="2.17" height="252.81"/>
      <rect class="cls-30" x="998.57" y="138.79" width="2.17" height="252.81"/>
      <rect class="cls-94" x="1000.74" y="138.79" width="2.17" height="252.81"/>
      <rect class="cls-55" x="1002.91" y="138.79" width="2.17" height="252.81"/>
      <rect class="cls-1" x="1005.08" y="138.79" width="2.17" height="252.81"/>
      <rect class="cls-29" x="1007.25" y="138.79" width="2.17" height="252.81"/>
      <rect class="cls-38" x="1009.41" y="138.79" width="2.17" height="252.81"/>
      <rect class="cls-84" x="1011.58" y="138.79" width="2.17" height="252.81"/>
      <rect class="cls-70" x="1013.75" y="138.79" width="2.17" height="252.81"/>
      <rect class="cls-83" x="1015.92" y="138.79" width="2.17" height="252.81"/>
      <rect class="cls-53" x="1018.08" y="138.79" width="2.17" height="252.81"/>
      <rect class="cls-99" x="1020.25" y="138.79" width="2.17" height="252.81"/>
      <rect class="cls-79" x="1022.42" y="138.79" width="2.17" height="252.81"/>
      <rect class="cls-56" x="1024.59" y="138.79" width="2.17" height="252.81"/>
      <rect class="cls-10" x="1026.76" y="138.79" width="2.17" height="252.81"/>
      <rect class="cls-41" x="1028.92" y="138.79" width="2.17" height="252.81"/>
      <rect class="cls-73" x="1031.09" y="138.79" width="2.17" height="252.81"/>
      <rect class="cls-45" x="1033.26" y="138.79" width="2.17" height="252.81"/>
      <rect class="cls-115" x="1035.43" y="138.79" width="2.17" height="252.81"/>
      <rect class="cls-68" x="1037.59" y="138.79" width="2.17" height="252.81"/>
      <rect class="cls-124" x="1039.76" y="138.79" width="2.17" height="252.81"/>
      <rect class="cls-9" x="1041.93" y="138.79" width="2.17" height="252.81"/>
      <rect class="cls-18" x="1044.1" y="138.79" width="2.17" height="252.81"/>
      <rect class="cls-86" x="1046.27" y="138.79" width="2.17" height="252.81"/>
      <rect class="cls-93" x="1048.43" y="138.79" width="2.17" height="252.81"/>
      <rect class="cls-72" x="1050.6" y="138.79" width="2.17" height="252.81"/>
      <rect class="cls-43" x="1052.77" y="138.79" width="2.17" height="252.81"/>
      <rect class="cls-71" x="1054.94" y="138.79" width="2.17" height="252.81"/>
      <rect class="cls-25" x="1057.1" y="138.79" width="2.17" height="252.81"/>
      <rect class="cls-27" x="1059.27" y="138.79" width="2.17" height="252.81"/>
      <rect class="cls-16" x="1061.44" y="138.79" width="2.17" height="252.81"/>
      <rect class="cls-95" x="1063.61" y="138.79" width="2.17" height="252.81"/>
      <rect class="cls-60" x="1065.78" y="138.79" width="2.17" height="252.81"/>
      <rect class="cls-3" x="1067.94" y="138.79" width="2.17" height="252.81"/>
      <rect class="cls-34" x="1070.11" y="138.79" width="2.17" height="252.81"/>
      <rect class="cls-8" x="1072.28" y="138.79" width="2.17" height="252.81"/>
      <rect class="cls-85" x="1074.45" y="138.79" width="2.17" height="252.81"/>
      <rect class="cls-96" x="1076.61" y="138.79" width="2.17" height="252.81"/>
      <rect class="cls-62" x="1078.78" y="138.79" width="2.17" height="252.81"/>
      <rect class="cls-6" x="1080.95" y="138.79" width="2.17" height="252.81"/>
      <rect class="cls-111" x="1083.12" y="138.79" width="2.17" height="252.81"/>
      <rect class="cls-113" x="1085.29" y="138.79" width="2.17" height="252.81"/>
      <rect class="cls-100" x="1087.45" y="138.79" width="2.17" height="252.81"/>
      <rect class="cls-51" x="1089.62" y="138.79" width="2.17" height="252.81"/>
      <rect class="cls-67" x="1091.79" y="138.79" width="2.17" height="252.81"/>
      <rect class="cls-58" x="1093.96" y="138.79" width="2.17" height="252.81"/>
      <rect class="cls-61" x="1096.13" y="138.79" width="2.17" height="252.81"/>
      <rect class="cls-24" x="1098.29" y="138.79" width="2.17" height="252.81"/>
      <rect class="cls-11" x="1100.46" y="138.79" width="2.17" height="252.81"/>
      <rect class="cls-52" x="1102.63" y="138.79" width="2.17" height="252.81"/>
      <rect class="cls-31" x="1104.8" y="138.79" width="2.17" height="252.81"/>
      <rect class="cls-28" x="1106.96" y="138.79" width="2.17" height="252.81"/>
      <rect class="cls-65" x="1109.13" y="138.79" width="2.17" height="252.81"/>
      <rect class="cls-122" x="1111.3" y="138.79" width="2.17" height="252.81"/>
      <rect class="cls-22" x="1113.47" y="138.79" width="2.17" height="252.81"/>
      <rect class="cls-125" x="1115.64" y="138.79" width="2.17" height="252.81"/>
      <rect class="cls-89" x="1117.8" y="138.79" width="2.17" height="252.81"/>
      <rect class="cls-32" x="1119.97" y="138.79" width="2.17" height="252.81"/>
      <rect class="cls-106" x="1122.14" y="138.79" width="2.17" height="252.81"/>
      <rect class="cls-101" x="1124.31" y="138.79" width="2.17" height="252.81"/>
      <rect class="cls-120" x="1126.47" y="138.79" width="2.17" height="252.81"/>
      <rect class="cls-103" x="1128.64" y="138.79" width="2.17" height="252.81"/>
      <rect class="cls-119" x="1130.81" y="138.79" width="2.17" height="252.81"/>
      <rect class="cls-44" x="1132.98" y="138.79" width="2.17" height="252.81"/>
      <rect class="cls-81" x="1135.15" y="138.79" width="2.17" height="252.81"/>
      <rect class="cls-88" x="1137.31" y="138.79" width="2.17" height="252.81"/>
      <rect class="cls-104" x="1139.48" y="138.79" width="2.17" height="252.81"/>
      <rect class="cls-97" x="1141.65" y="138.79" width="2.17" height="252.81"/>
      <rect class="cls-5" x="1143.82" y="138.79" width="2.17" height="252.81"/>
      <rect class="cls-66" x="1145.98" y="138.79" width="2.17" height="252.81"/>
      <rect class="cls-47" x="1148.15" y="138.79" width="2.17" height="252.81"/>
      <rect class="cls-98" x="1150.32" y="138.79" width="2.17" height="252.81"/>
      <rect class="cls-74" x="1152.49" y="138.79" width="2.17" height="252.81"/>
      <rect class="cls-54" x="1154.66" y="138.79" width="2.17" height="252.81"/>
      <rect class="cls-102" x="1156.82" y="138.79" width="2.17" height="252.81"/>
      <rect class="cls-91" x="1158.99" y="138.79" width="2.17" height="252.81"/>
      <rect class="cls-23" x="1161.16" y="138.79" width="2.17" height="252.81"/>
      <rect class="cls-126" x="1163.33" y="138.79" width="2.17" height="252.81"/>
      <rect class="cls-33" x="1165.5" y="138.79" width="2.17" height="252.81"/>
      <rect class="cls-46" x="1167.66" y="138.79" width="2.17" height="252.81"/>
      <rect class="cls-48" x="1169.83" y="138.79" width="2.17" height="252.81"/>
      <rect class="cls-63" x="1172" y="138.79" width="2.17" height="252.81"/>
      <rect class="cls-26" x="1174.17" y="138.79" width="2.17" height="252.81"/>
      <rect class="cls-92" x="1176.33" y="138.79" width="2.17" height="252.81"/>
      <rect class="cls-110" x="1178.5" y="138.79" width="2.17" height="252.81"/>
      <rect class="cls-40" x="1180.67" y="138.79" width="2.17" height="252.81"/>
      <rect class="cls-117" x="1182.84" y="138.79" width="2.17" height="252.81"/>
      <rect class="cls-87" x="1185.01" y="138.79" width="2.17" height="252.81"/>
      <rect class="cls-118" x="1187.17" y="138.79" width="2.17" height="252.81"/>
      <rect class="cls-75" x="1189.34" y="138.79" width="2.17" height="252.81"/>
    </g>
    <g>
      <path class="cls-114" d="M964.6,366.91c-.24,0-.47-.09-.65-.27-.36-.36-.36-.95,0-1.31l201.55-201.55c.36-.36.95-.36,1.31,0s.36.95,0,1.31l-201.55,201.55c-.18.18-.42.27-.65.27Z"/>
      <path class="cls-114" d="M1154.99,367.43h-.01c-22.27-.01-44.55,0-66.82-.01h-22.27c-.51,0-.92-.41-.92-.92s.41-.92.92-.92h22.27c22.28,0,44.55,0,66.82,0h.01c4.88,0,8.01-1.77,9.83-5.57.58-1.22.66-2.48.66-3.67-.01-25.19-.01-50.38-.01-75.58v-14.53c0-.51.41-.92.92-.92s.92.41.92.92v14.53c0,25.19,0,50.38.01,75.58,0,1.34-.1,2.92-.85,4.47-2.14,4.45-5.9,6.62-11.5,6.62Z"/>
      <path class="cls-114" d="M963.97,264.87c-.38,0-.74-.24-.87-.62-.27-.78-.23-1.53-.19-2.2.01-.21.02-.43.02-.64,0-21.45,0-42.9,0-64.35v-21.45c0-3.63,1.28-6.89,3.6-9.19,2.3-2.28,5.49-3.5,9.01-3.45,7.67.1,15.48.08,23.04.06,3.23,0,6.46-.02,9.7-.02h56.61c.51,0,.92.41.92.92s-.41.92-.92.92h-56.61c-3.23,0-6.46,0-9.69.02-7.56.02-15.38.04-23.07-.06-2.99-.04-5.74,1-7.69,2.92-2,1.97-3.06,4.69-3.06,7.87v21.45c0,21.45,0,42.9.01,64.35,0,.25-.01.49-.03.74-.03.57-.06,1.06.09,1.5.17.48-.09,1.01-.57,1.17-.1.03-.2.05-.3.05Z"/>
    </g>
  </g>
  <g>
    <g class="cls-128">
      <rect class="cls-12" x="1763.96" y="185.88" width="3.54" height="157.66"/>
      <rect class="cls-12" x="1767.5" y="185.88" width="1.35" height="157.66"/>
      <rect class="cls-80" x="1768.85" y="185.88" width="1.35" height="157.66"/>
      <rect class="cls-4" x="1770.2" y="185.88" width="1.35" height="157.66"/>
      <rect class="cls-20" x="1771.55" y="185.88" width="1.35" height="157.66"/>
      <rect class="cls-49" x="1772.9" y="185.88" width="1.35" height="157.66"/>
      <rect class="cls-108" x="1774.26" y="185.88" width="1.35" height="157.66"/>
      <rect class="cls-121" x="1775.61" y="185.88" width="1.35" height="157.66"/>
      <rect class="cls-42" x="1776.96" y="185.88" width="1.35" height="157.66"/>
      <rect class="cls-7" x="1778.31" y="185.88" width="1.35" height="157.66"/>
      <rect class="cls-13" x="1779.66" y="185.88" width="1.35" height="157.66"/>
      <rect class="cls-82" x="1781.02" y="185.88" width="1.35" height="157.66"/>
      <rect class="cls-123" x="1782.37" y="185.88" width="1.35" height="157.66"/>
      <rect class="cls-78" x="1783.72" y="185.88" width="1.35" height="157.66"/>
      <rect class="cls-14" x="1785.07" y="185.88" width="1.35" height="157.66"/>
      <rect class="cls-64" x="1786.42" y="185.88" width="1.35" height="157.66"/>
      <rect class="cls-35" x="1787.78" y="185.88" width="1.35" height="157.66"/>
      <rect class="cls-107" x="1789.13" y="185.88" width="1.35" height="157.66"/>
      <rect class="cls-77" x="1790.48" y="185.88" width="1.35" height="157.66"/>
      <rect class="cls-76" x="1791.83" y="185.88" width="1.35" height="157.66"/>
      <rect class="cls-21" x="1793.18" y="185.88" width="1.35" height="157.66"/>
      <rect class="cls-19" x="1794.54" y="185.88" width="1.35" height="157.66"/>
      <rect class="cls-116" x="1795.89" y="185.88" width="1.35" height="157.66"/>
      <rect class="cls-90" x="1797.24" y="185.88" width="1.35" height="157.66"/>
      <rect class="cls-15" x="1798.59" y="185.88" width="1.35" height="157.66"/>
      <rect class="cls-112" x="1799.94" y="185.88" width="1.35" height="157.66"/>
      <rect class="cls-30" x="1801.29" y="185.88" width="1.35" height="157.66"/>
      <rect class="cls-94" x="1802.65" y="185.88" width="1.35" height="157.66"/>
      <rect class="cls-55" x="1804" y="185.88" width="1.35" height="157.66"/>
      <rect class="cls-1" x="1805.35" y="185.88" width="1.35" height="157.66"/>
      <rect class="cls-29" x="1806.7" y="185.88" width="1.35" height="157.66"/>
      <rect class="cls-38" x="1808.05" y="185.88" width="1.35" height="157.66"/>
      <rect class="cls-84" x="1809.41" y="185.88" width="1.35" height="157.66"/>
      <rect class="cls-70" x="1810.76" y="185.88" width="1.35" height="157.66"/>
      <rect class="cls-83" x="1812.11" y="185.88" width="1.35" height="157.66"/>
      <rect class="cls-53" x="1813.46" y="185.88" width="1.35" height="157.66"/>
      <rect class="cls-99" x="1814.81" y="185.88" width="1.35" height="157.66"/>
      <rect class="cls-79" x="1816.17" y="185.88" width="1.35" height="157.66"/>
      <rect class="cls-56" x="1817.52" y="185.88" width="1.35" height="157.66"/>
      <rect class="cls-10" x="1818.87" y="185.88" width="1.35" height="157.66"/>
      <rect class="cls-41" x="1820.22" y="185.88" width="1.35" height="157.66"/>
      <rect class="cls-73" x="1821.57" y="185.88" width="1.35" height="157.66"/>
      <rect class="cls-45" x="1822.93" y="185.88" width="1.35" height="157.66"/>
      <rect class="cls-115" x="1824.28" y="185.88" width="1.35" height="157.66"/>
      <rect class="cls-68" x="1825.63" y="185.88" width="1.35" height="157.66"/>
      <rect class="cls-124" x="1826.98" y="185.88" width="1.35" height="157.66"/>
      <rect class="cls-9" x="1828.33" y="185.88" width="1.35" height="157.66"/>
      <rect class="cls-18" x="1829.69" y="185.88" width="1.35" height="157.66"/>
      <rect class="cls-86" x="1831.04" y="185.88" width="1.35" height="157.66"/>
      <rect class="cls-93" x="1832.39" y="185.88" width="1.35" height="157.66"/>
      <rect class="cls-72" x="1833.74" y="185.88" width="1.35" height="157.66"/>
      <rect class="cls-43" x="1835.09" y="185.88" width="1.35" height="157.66"/>
      <rect class="cls-71" x="1836.44" y="185.88" width="1.35" height="157.66"/>
      <rect class="cls-25" x="1837.8" y="185.88" width="1.35" height="157.66"/>
      <rect class="cls-27" x="1839.15" y="185.88" width="1.35" height="157.66"/>
      <rect class="cls-16" x="1840.5" y="185.88" width="1.35" height="157.66"/>
      <rect class="cls-95" x="1841.85" y="185.88" width="1.35" height="157.66"/>
      <rect class="cls-60" x="1843.2" y="185.88" width="1.35" height="157.66"/>
      <rect class="cls-3" x="1844.56" y="185.88" width="1.35" height="157.66"/>
      <rect class="cls-34" x="1845.91" y="185.88" width="1.35" height="157.66"/>
      <rect class="cls-8" x="1847.26" y="185.88" width="1.35" height="157.66"/>
      <rect class="cls-85" x="1848.61" y="185.88" width="1.35" height="157.66"/>
      <rect class="cls-96" x="1849.96" y="185.88" width="1.35" height="157.66"/>
      <rect class="cls-62" x="1851.32" y="185.88" width="1.35" height="157.66"/>
      <rect class="cls-6" x="1852.67" y="185.88" width="1.35" height="157.66"/>
      <rect class="cls-111" x="1854.02" y="185.88" width="1.35" height="157.66"/>
      <rect class="cls-113" x="1855.37" y="185.88" width="1.35" height="157.66"/>
      <rect class="cls-100" x="1856.72" y="185.88" width="1.35" height="157.66"/>
      <rect class="cls-51" x="1858.08" y="185.88" width="1.35" height="157.66"/>
      <rect class="cls-67" x="1859.43" y="185.88" width="1.35" height="157.66"/>
      <rect class="cls-58" x="1860.78" y="185.88" width="1.35" height="157.66"/>
      <rect class="cls-61" x="1862.13" y="185.88" width="1.35" height="157.66"/>
      <rect class="cls-24" x="1863.48" y="185.88" width="1.35" height="157.66"/>
      <rect class="cls-11" x="1864.83" y="185.88" width="1.35" height="157.66"/>
      <rect class="cls-52" x="1866.19" y="185.88" width="1.35" height="157.66"/>
      <rect class="cls-31" x="1867.54" y="185.88" width="1.35" height="157.66"/>
      <rect class="cls-28" x="1868.89" y="185.88" width="1.35" height="157.66"/>
      <rect class="cls-65" x="1870.24" y="185.88" width="1.35" height="157.66"/>
      <rect class="cls-122" x="1871.59" y="185.88" width="1.35" height="157.66"/>
      <rect class="cls-22" x="1872.95" y="185.88" width="1.35" height="157.66"/>
      <rect class="cls-125" x="1874.3" y="185.88" width="1.35" height="157.66"/>
      <rect class="cls-89" x="1875.65" y="185.88" width="1.35" height="157.66"/>
      <rect class="cls-32" x="1877" y="185.88" width="1.35" height="157.66"/>
      <rect class="cls-106" x="1878.35" y="185.88" width="1.35" height="157.66"/>
      <rect class="cls-101" x="1879.71" y="185.88" width="1.35" height="157.66"/>
      <rect class="cls-120" x="1881.06" y="185.88" width="1.35" height="157.66"/>
      <rect class="cls-103" x="1882.41" y="185.88" width="1.35" height="157.66"/>
      <rect class="cls-119" x="1883.76" y="185.88" width="1.35" height="157.66"/>
      <rect class="cls-44" x="1885.11" y="185.88" width="1.35" height="157.66"/>
      <rect class="cls-81" x="1886.47" y="185.88" width="1.35" height="157.66"/>
      <rect class="cls-88" x="1887.82" y="185.88" width="1.35" height="157.66"/>
      <rect class="cls-104" x="1889.17" y="185.88" width="1.35" height="157.66"/>
      <rect class="cls-97" x="1890.52" y="185.88" width="1.35" height="157.66"/>
      <rect class="cls-5" x="1891.87" y="185.88" width="1.35" height="157.66"/>
      <rect class="cls-66" x="1893.22" y="185.88" width="1.35" height="157.66"/>
      <rect class="cls-47" x="1894.58" y="185.88" width="1.35" height="157.66"/>
      <rect class="cls-98" x="1895.93" y="185.88" width="1.35" height="157.66"/>
      <rect class="cls-74" x="1897.28" y="185.88" width="1.35" height="157.66"/>
      <rect class="cls-54" x="1898.63" y="185.88" width="1.35" height="157.66"/>
      <rect class="cls-102" x="1899.98" y="185.88" width="1.35" height="157.66"/>
      <rect class="cls-91" x="1901.34" y="185.88" width="1.35" height="157.66"/>
      <rect class="cls-23" x="1902.69" y="185.88" width="1.35" height="157.66"/>
      <rect class="cls-126" x="1904.04" y="185.88" width="1.35" height="157.66"/>
      <rect class="cls-33" x="1905.39" y="185.88" width="1.35" height="157.66"/>
      <rect class="cls-46" x="1906.74" y="185.88" width="1.35" height="157.66"/>
      <rect class="cls-48" x="1908.1" y="185.88" width="1.35" height="157.66"/>
      <rect class="cls-63" x="1909.45" y="185.88" width="1.35" height="157.66"/>
      <rect class="cls-26" x="1910.8" y="185.88" width="1.35" height="157.66"/>
      <rect class="cls-92" x="1912.15" y="185.88" width="1.35" height="157.66"/>
      <rect class="cls-110" x="1913.5" y="185.88" width="1.35" height="157.66"/>
      <rect class="cls-40" x="1914.86" y="185.88" width="1.35" height="157.66"/>
      <rect class="cls-117" x="1916.21" y="185.88" width="1.35" height="157.66"/>
      <rect class="cls-87" x="1917.56" y="185.88" width="1.35" height="157.66"/>
      <rect class="cls-118" x="1918.91" y="185.88" width="1.35" height="157.66"/>
      <rect class="cls-75" x="1920.26" y="185.88" width="1.35" height="157.66"/>
    </g>
    <path class="cls-114" d="M1898.61,264.71c-37.71,10-45.82,18.12-55.82,55.82-10-37.71-18.12-45.82-55.82-55.82,37.71-10,45.82-18.12,55.82-55.82,10,37.71,18.12,45.82,55.82,55.82Z"/>
  </g>
  <rect class="cls-114" x="1346.6" y="264.27" width="416.91" height="1.85"/>
  <rect class="cls-75" x="1731.03" y="677.83" width="1.48" height="36.82" transform="translate(-40.32 1282.31) rotate(-40.2)"/>
  <g>
    <path class="cls-39" d="M1442.93,867.73l-32.78-11.67c-6.65-2.37-4.95-12.22,2.11-12.22h100.23l-69.56,23.89Z"/>
    <path class="cls-114" d="M1442.93,868.65c-.1,0-.21-.02-.31-.05l-32.78-11.67c-3.95-1.41-5.2-5.04-4.69-8.02.52-2.98,2.91-5.99,7.11-5.99h100.23c.45,0,.84.33.91.77s-.18.88-.61,1.03l-69.56,23.89c-.1.03-.2.05-.3.05ZM1412.26,844.76c-3.34,0-4.93,2.4-5.29,4.45-.36,2.05.35,4.85,3.49,5.97l32.48,11.56,64.02-21.99h-94.7Z"/>
  </g>
  <g>
    <path class="cls-39" d="M1761.99,867.73h-318.73v-214.6c0-4.14,3.35-7.49,7.49-7.49h303.75c4.14,0,7.49,3.35,7.49,7.49v214.6Z"/>
    <path class="cls-114" d="M1761.99,868.65h-318.73c-.51,0-.92-.41-.92-.92v-214.6c0-4.64,3.78-8.42,8.42-8.42h303.75c4.64,0,8.42,3.78,8.42,8.42v214.6c0,.51-.41.92-.92.92ZM1444.19,866.8h316.88v-213.68c0-3.62-2.95-6.57-6.57-6.57h-303.75c-3.62,0-6.57,2.95-6.57,6.57v213.68Z"/>
  </g>
  <path class="cls-114" d="M1744.6,851.81c-.51,0-.92-.41-.92-.92v-188.41c0-.51.41-.92.92-.92s.92.41.92.92v188.41c0,.51-.41.92-.92.92Z"/>
  <path class="cls-114" d="M1729.67,769.48c-.51,0-.92-.41-.92-.92v-106.08c0-.51.41-.92.92-.92s.92.41.92.92v106.08c0,.51-.41.92-.92.92Z"/>
  <path class="cls-114" d="M1890.38,868.65h-730.04c-.51,0-.92-.41-.92-.92s.41-.92.92-.92h730.04c.51,0,.92.41.92.92s-.41.92-.92.92Z"/>
  <g>
    <rect class="cls-39" x="1383.62" y="754.51" width="57.71" height="14.14" transform="translate(398.24 2005.13) rotate(-79.13)"/>
    <path class="cls-114" d="M1413.98,792.18c-.06,0-.12,0-.17-.02l-13.89-2.67c-.24-.05-.45-.19-.59-.39-.14-.2-.19-.45-.14-.69l10.88-56.67c.05-.24.19-.45.39-.59.2-.14.45-.19.69-.14l13.89,2.67c.5.1.83.58.73,1.08l-10.88,56.67c-.09.44-.47.75-.91.75ZM1401.17,787.85l12.08,2.32,10.53-54.86-12.08-2.32-10.53,54.86Z"/>
  </g>
  <g>
    <polygon class="cls-39" points="1410.97 731.91 1420.58 719.36 1424.86 734.58 1410.97 731.91"/>
    <path class="cls-114" d="M1424.86,735.5c-.06,0-.12,0-.17-.02l-13.89-2.67c-.31-.06-.58-.28-.69-.58-.11-.3-.06-.64.13-.89l9.61-12.56c.21-.28.57-.41.91-.35.34.07.62.32.72.66l4.28,15.22c.09.31,0,.64-.21.87-.18.19-.42.3-.68.3ZM1412.61,731.29l10.95,2.1-3.37-12-7.58,9.9Z"/>
  </g>
  <g>
    <polygon class="cls-39" points="1381.96 718.22 1389.04 704.08 1396.11 718.22 1381.96 718.22"/>
    <path class="cls-114" d="M1396.11,719.14h-14.14c-.32,0-.62-.17-.79-.44s-.18-.61-.04-.9l7.07-14.14c.31-.63,1.34-.63,1.65,0l7.07,14.14c.14.29.13.63-.04.9s-.47.44-.79.44ZM1383.46,717.3h11.15l-5.58-11.15-5.58,11.15Z"/>
  </g>
  <g>
    <rect class="cls-39" x="1381.96" y="717.71" width="14.14" height="33.55"/>
    <path class="cls-114" d="M1396.11,752.19h-14.14c-.51,0-.92-.41-.92-.92v-33.55c0-.51.41-.92.92-.92h14.14c.51,0,.92.41.92.92v33.55c0,.51-.41.92-.92.92ZM1382.89,750.34h12.3v-31.71h-12.3v31.71Z"/>
  </g>
  <g>
    <rect class="cls-39" x="1384.78" y="751.26" width="8.52" height="33.55"/>
    <path class="cls-114" d="M1393.3,785.74h-8.52c-.51,0-.92-.41-.92-.92v-33.55c0-.51.41-.92.92-.92h8.52c.51,0,.92.41.92.92v33.55c0,.24-.1.48-.27.65s-.41.27-.65.27ZM1385.7,783.89h6.67s0-31.71,0-31.71h-6.67v31.71Z"/>
  </g>
  <g>
    <rect class="cls-39" x="1373.24" y="783.7" width="49.21" height="83.94"/>
    <path class="cls-114" d="M1422.45,868.56h-49.21c-.51,0-.92-.41-.92-.92v-83.94c0-.51.41-.92.92-.92h49.21c.51,0,.92.41.92.92v83.94c0,.51-.41.92-.92.92ZM1374.16,866.72h47.36v-82.09h-47.36v82.09Z"/>
  </g>
  <g>
    <rect class="cls-39" x="1779.68" y="800.34" width="61.57" height="67.05" rx="2.46" ry="2.46"/>
    <path class="cls-114" d="M1838.79,868.32h-56.65c-1.87,0-3.39-1.52-3.39-3.39v-62.13c0-1.87,1.52-3.39,3.39-3.39h56.65c1.87,0,3.39,1.52,3.39,3.39v62.13c0,1.87-1.52,3.39-3.39,3.39ZM1782.14,801.26c-.85,0-1.54.69-1.54,1.54v62.13c0,.85.69,1.54,1.54,1.54h56.65c.85,0,1.54-.69,1.54-1.54v-62.13c0-.85-.69-1.54-1.54-1.54h-56.65Z"/>
  </g>
  <path class="cls-114" d="M1848.51,858.7h-7.26v-1.85h7.26c2.13,0,3.95-1.52,4.34-3.61l6.84-37.04c.32-1.73-.14-3.5-1.27-4.85-1.13-1.35-2.78-2.13-4.54-2.13h-12.63v-1.85h12.63c2.31,0,4.48,1.02,5.96,2.79,1.48,1.78,2.08,4.1,1.67,6.37l-6.84,37.04c-.55,2.97-3.14,5.13-6.16,5.13Z"/>
  <g>
    <polygon class="cls-39" points="1281.5 737.8 1290.36 867.73 1340.56 867.73 1351.19 737.8 1281.5 737.8"/>
    <path class="cls-114" d="M1341.41,868.65h-51.92l-8.98-131.78h71.68l-10.78,131.78ZM1291.22,866.8h48.49l10.48-128.08h-67.7l8.73,128.08Z"/>
  </g>
  <g>
    <ellipse class="cls-39" cx="1341.98" cy="649.11" rx="35.94" ry="14.71" transform="translate(-65.93 1139.04) rotate(-45)"/>
    <path class="cls-114" d="M1322.39,677.5c-2.73,0-4.93-.78-6.48-2.33-6.2-6.2.39-22.51,15.01-37.12,14.62-14.62,30.92-21.21,37.12-15.01,6.2,6.2-.39,22.51-15.01,37.12h0s0,0,0,0c-6.87,6.87-14.44,12.24-21.31,15.12-3.52,1.48-6.67,2.21-9.33,2.21ZM1361.59,622.56c-7.27,0-19.02,6.45-29.37,16.79-13.42,13.42-20.3,29.23-15.01,34.51,2.46,2.46,7.49,2.36,13.79-.29,6.66-2.79,14.02-8.02,20.72-14.72h0c13.42-13.42,20.3-29.23,15.01-34.51-1.21-1.21-2.98-1.79-5.14-1.79Z"/>
  </g>
  <g>
    <ellipse class="cls-39" cx="1298.68" cy="664.52" rx="9.2" ry="22.47" transform="translate(-89.51 1112.94) rotate(-45)"/>
    <path class="cls-114" d="M1310.95,682.59c-5.06,0-12.55-4.04-19.43-10.92h0c-9.28-9.28-13.4-19.69-9.39-23.7,4.01-4.01,14.43.11,23.7,9.39,4.33,4.33,7.71,9.1,9.53,13.44,1.93,4.6,1.88,8.24-.14,10.26-1.04,1.04-2.51,1.53-4.27,1.53ZM1292.83,670.37c9.12,9.11,18.26,12.21,21.09,9.39,1.43-1.43,1.34-4.44-.25-8.24-1.73-4.12-4.97-8.68-9.13-12.85-9.11-9.11-18.26-12.21-21.09-9.39-2.83,2.83.27,11.98,9.39,21.09h0Z"/>
  </g>
  <g>
    <ellipse class="cls-39" cx="1305.1" cy="708.58" rx="6.03" ry="14.72" transform="translate(-118.79 1130.38) rotate(-45)"/>
    <path class="cls-114" d="M1313.12,720.75c-1.17,0-2.53-.31-4.03-.95-2.88-1.21-6.04-3.45-8.9-6.31h0c-2.86-2.86-5.1-6.03-6.31-8.9-1.32-3.14-1.26-5.65.16-7.07,1.42-1.42,3.93-1.48,7.07-.16,2.88,1.21,6.04,3.45,8.9,6.31,2.86,2.86,5.1,6.03,6.31,8.9,1.32,3.14,1.26,5.65-.16,7.07-.74.74-1.77,1.11-3.04,1.11ZM1297.08,698.26c-.76,0-1.36.19-1.74.57-.83.83-.74,2.72.23,5.05,1.12,2.66,3.22,5.61,5.91,8.31h0c2.7,2.7,5.65,4.8,8.31,5.91,2.33.98,4.22,1.06,5.05.23s.74-2.72-.23-5.05c-1.12-2.66-3.22-5.61-5.91-8.31-2.7-2.7-5.65-4.8-8.31-5.91-1.27-.53-2.41-.8-3.32-.8Z"/>
  </g>
  <rect class="cls-114" x="1315.42" y="674.28" width="1.85" height="63.52"/>
  <g>
    <path class="cls-114" d="M1001.7,428.11l27.51,27.46-27.51,27.46-27.51-27.46,27.51-27.46M1001.7,425.5l-1.31,1.3-27.51,27.46-1.31,1.31,1.31,1.31,27.51,27.46,1.31,1.3,1.31-1.3,27.51-27.46,1.31-1.31-1.31-1.31-27.51-27.46-1.31-1.3h0Z"/>
    <g>
      <polygon class="cls-105" points="987.93 441.83 1001.7 455.58 987.93 469.32 974.16 455.58 987.93 441.83"/>
      <polygon class="cls-69" points="1001.7 428.09 1015.47 441.83 1001.7 455.58 987.93 441.83 1001.7 428.09"/>
      <polygon class="cls-105" points="1015.47 469.32 1001.7 455.58 1015.47 441.83 1029.24 455.58 1015.47 469.32"/>
      <polygon class="cls-69" points="1001.7 483.07 987.93 469.32 1001.7 455.58 1015.47 469.32 1001.7 483.07"/>
    </g>
  </g>
  <polygon class="cls-109" points="1268.06 204.79 1269.37 207.97 1266.22 209.27 1266.22 212.69 1262.78 212.69 1261.46 215.86 1258.29 214.54 1255.88 216.95 1253.45 214.53 1250.28 215.83 1248.97 212.68 1245.57 212.68 1245.57 209.24 1242.4 207.92 1243.7 204.79 1241.28 202.38 1243.71 199.95 1242.4 196.77 1245.55 195.47 1245.55 192.05 1248.99 192.05 1250.31 188.88 1253.48 190.2 1255.89 187.79 1258.32 190.21 1261.49 188.91 1262.79 192.07 1266.2 192.07 1266.2 195.5 1269.37 196.82 1268.07 199.95 1270.49 202.36 1268.06 204.79"/>
  <polygon class="cls-109" points="1426.46 267.62 1427.77 270.8 1424.62 272.1 1424.62 275.51 1421.18 275.51 1419.86 278.69 1416.69 277.37 1414.28 279.78 1411.85 277.36 1408.68 278.66 1407.37 275.5 1403.97 275.5 1403.97 272.07 1400.8 270.75 1402.1 267.62 1399.68 265.2 1402.11 262.77 1400.8 259.6 1403.95 258.3 1403.95 254.88 1407.39 254.88 1408.71 251.7 1411.88 253.02 1414.29 250.62 1416.72 253.04 1419.89 251.74 1421.19 254.9 1424.6 254.9 1424.6 258.33 1427.77 259.65 1426.47 262.77 1428.89 265.19 1426.46 267.62"/>
  <polygon class="cls-109" points="1855.6 426.26 1856.91 429.43 1853.75 430.73 1853.75 434.15 1850.32 434.15 1849 437.33 1845.83 436.01 1843.42 438.41 1840.99 435.99 1837.82 437.29 1836.51 434.14 1833.11 434.14 1833.11 430.7 1829.94 429.38 1831.24 426.26 1828.82 423.84 1831.25 421.41 1829.94 418.23 1833.09 416.93 1833.09 413.52 1836.53 413.52 1837.85 410.34 1841.02 411.66 1843.43 409.25 1845.86 411.68 1849.03 410.37 1850.33 413.53 1853.74 413.53 1853.74 416.96 1856.91 418.28 1855.61 421.41 1858.03 423.83 1855.6 426.26"/>
  <polygon class="cls-109" points="1109.34 521.49 1110.65 524.66 1107.5 525.97 1107.5 529.38 1104.06 529.38 1102.74 532.56 1099.57 531.24 1097.16 533.64 1094.73 531.22 1091.56 532.52 1090.26 529.37 1086.85 529.37 1086.85 525.93 1083.68 524.62 1084.98 521.49 1082.56 519.07 1084.99 516.64 1083.68 513.47 1086.83 512.16 1086.83 508.75 1090.27 508.75 1091.59 505.57 1094.76 506.89 1097.17 504.48 1099.6 506.91 1102.77 505.6 1104.08 508.76 1107.48 508.76 1107.48 512.2 1110.65 513.51 1109.35 516.64 1111.77 519.06 1109.34 521.49"/>
  <polygon class="cls-109" points="1045.93 521.49 1047.24 524.66 1044.09 525.97 1044.09 529.38 1040.65 529.38 1039.34 532.56 1036.17 531.24 1033.75 533.64 1031.32 531.22 1028.15 532.52 1026.85 529.37 1023.44 529.37 1023.44 525.93 1020.28 524.62 1021.58 521.49 1019.16 519.07 1021.59 516.64 1020.28 513.47 1023.43 512.16 1023.43 508.75 1026.87 508.75 1028.19 505.57 1031.35 506.89 1033.77 504.48 1036.2 506.91 1039.37 505.6 1040.67 508.76 1044.08 508.76 1044.08 512.2 1047.24 513.51 1045.94 516.64 1048.36 519.06 1045.93 521.49"/>
  <g>
    <polygon class="cls-109" points="1332.65 278.94 1318.88 265.2 1305.11 278.94 1318.88 292.69 1332.65 278.94"/>
    <g>
      <path class="cls-114" d="M1318.88,237.73l27.51,27.46-27.51,27.46-27.51-27.46,27.51-27.46M1318.88,235.12l-1.31,1.3-27.51,27.46-1.31,1.31,1.31,1.31,27.51,27.46,1.31,1.3,1.31-1.3,27.51-27.46,1.31-1.31-1.31-1.31-27.51-27.46-1.31-1.3h0Z"/>
      <polygon class="cls-37" points="1346.42 265.2 1332.65 251.45 1318.88 265.2 1332.65 278.94 1346.42 265.2"/>
    </g>
    <polygon class="cls-105" points="1305.11 251.45 1318.88 265.2 1332.65 251.45 1318.88 237.71 1305.11 251.45"/>
    <polygon class="cls-50" points="1291.34 265.2 1305.11 278.94 1318.88 265.2 1305.11 251.45 1291.34 265.2"/>
  </g>
  <g>
    <path class="cls-36" d="M1534.03,566.68c.54,5.59,1.28,12.12,2.29,19.39-4.6,2.6-15.61,8-30.55,7.62-15.12-.39-25.92-6.48-30.37-9.33,2.49-16.29,4.54-36.08,4.86-58.67.01-.15.01-.3.01-.45,0-.36.01-.72.01-1.08.03-3.16.03-6.26-.01-9.31-.05-5.01-.19-9.88-.4-14.59-.18-4.01-.41-7.92-.69-11.71-.01-.19-.02-.38-.04-.57-.05-.78-.12-1.55-.17-2.32-.33-4.18-.71-8.21-1.13-12.09-.32-2.91-.65-5.75-1-8.49-.56-4.41-1.17-8.6-1.8-12.55h61.37c-1.73,12.44-3.24,26.73-4.04,42.62-.05,1.16-.11,2.33-.16,3.5-.24,5.55-.39,11.28-.44,17.19-.01,1.04-.02,2.08-.02,3.15h0c0,1.06,0,2.12.01,3.18.01,2.63.04,5.28.1,7.97.07,3.09.17,6.14.3,9.14,0,.09,0,.17.01.24.06,1.64.14,3.26.22,4.87.39,7.8.96,15.25,1.65,22.31Z"/>
    <g class="cls-130">
      <path class="cls-105" d="M1553.58,548.03c1.84-17.48,4.17-34.04,6.84-49.62l-67.27,32.85,58.42,39.37c.54-7.35,1.2-14.9,2.01-22.6Z"/>
    </g>
    <path class="cls-36" d="M1563.18,446.34c2.7,39.81-25.24,89.82-58.22,89.89-33.08.07-61.04-50.08-58.22-89.89.53-7.48,2.04-28.7,18.92-43.23,21.38-18.4,58.23-18.16,79.29.47,16.34,14.46,17.72,35.17,18.23,42.75Z"/>
    <ellipse class="cls-36" cx="1446.35" cy="476.3" rx="9.52" ry="17.47" transform="translate(-61.16 691.26) rotate(-26.34)"/>
    <g class="cls-129">
      <rect class="cls-12" x="1425.67" y="351.27" width="3.62" height="133"/>
      <rect class="cls-12" x="1429.3" y="351.27" width="1.38" height="133"/>
      <rect class="cls-80" x="1430.68" y="351.27" width="1.38" height="133"/>
      <rect class="cls-4" x="1432.06" y="351.27" width="1.38" height="133"/>
      <rect class="cls-20" x="1433.45" y="351.27" width="1.38" height="133"/>
      <rect class="cls-49" x="1434.83" y="351.27" width="1.38" height="133"/>
      <rect class="cls-108" x="1436.21" y="351.27" width="1.38" height="133"/>
      <rect class="cls-121" x="1437.6" y="351.27" width="1.38" height="133"/>
      <rect class="cls-42" x="1438.98" y="351.27" width="1.38" height="133"/>
      <rect class="cls-7" x="1440.36" y="351.27" width="1.38" height="133"/>
      <rect class="cls-13" x="1441.75" y="351.27" width="1.38" height="133"/>
      <rect class="cls-82" x="1443.13" y="351.27" width="1.38" height="133"/>
      <rect class="cls-123" x="1444.51" y="351.27" width="1.38" height="133"/>
      <rect class="cls-78" x="1445.9" y="351.27" width="1.38" height="133"/>
      <rect class="cls-14" x="1447.28" y="351.27" width="1.38" height="133"/>
      <rect class="cls-64" x="1448.66" y="351.27" width="1.38" height="133"/>
      <rect class="cls-35" x="1450.05" y="351.27" width="1.38" height="133"/>
      <rect class="cls-107" x="1451.43" y="351.27" width="1.38" height="133"/>
      <rect class="cls-77" x="1452.82" y="351.27" width="1.38" height="133"/>
      <rect class="cls-76" x="1454.2" y="351.27" width="1.38" height="133"/>
      <rect class="cls-21" x="1455.58" y="351.27" width="1.38" height="133"/>
      <rect class="cls-19" x="1456.97" y="351.27" width="1.38" height="133"/>
      <rect class="cls-116" x="1458.35" y="351.27" width="1.38" height="133"/>
      <rect class="cls-90" x="1459.73" y="351.27" width="1.38" height="133"/>
      <rect class="cls-15" x="1461.12" y="351.27" width="1.38" height="133"/>
      <rect class="cls-112" x="1462.5" y="351.27" width="1.38" height="133"/>
      <rect class="cls-30" x="1463.88" y="351.27" width="1.38" height="133"/>
      <rect class="cls-94" x="1465.27" y="351.27" width="1.38" height="133"/>
      <rect class="cls-55" x="1466.65" y="351.27" width="1.38" height="133"/>
      <rect class="cls-1" x="1468.03" y="351.27" width="1.38" height="133"/>
      <rect class="cls-29" x="1469.42" y="351.27" width="1.38" height="133"/>
      <rect class="cls-38" x="1470.8" y="351.27" width="1.38" height="133"/>
      <rect class="cls-84" x="1472.18" y="351.27" width="1.38" height="133"/>
      <rect class="cls-70" x="1473.57" y="351.27" width="1.38" height="133"/>
      <rect class="cls-83" x="1474.95" y="351.27" width="1.38" height="133"/>
      <rect class="cls-53" x="1476.33" y="351.27" width="1.38" height="133"/>
      <rect class="cls-99" x="1477.72" y="351.27" width="1.38" height="133"/>
      <rect class="cls-79" x="1479.1" y="351.27" width="1.38" height="133"/>
      <rect class="cls-56" x="1480.48" y="351.27" width="1.38" height="133"/>
      <rect class="cls-10" x="1481.87" y="351.27" width="1.38" height="133"/>
      <rect class="cls-41" x="1483.25" y="351.27" width="1.38" height="133"/>
      <rect class="cls-73" x="1484.63" y="351.27" width="1.38" height="133"/>
      <rect class="cls-45" x="1486.02" y="351.27" width="1.38" height="133"/>
      <rect class="cls-115" x="1487.4" y="351.27" width="1.38" height="133"/>
      <rect class="cls-68" x="1488.78" y="351.27" width="1.38" height="133"/>
      <rect class="cls-124" x="1490.17" y="351.27" width="1.38" height="133"/>
      <rect class="cls-9" x="1491.55" y="351.27" width="1.38" height="133"/>
      <rect class="cls-18" x="1492.93" y="351.27" width="1.38" height="133"/>
      <rect class="cls-86" x="1494.32" y="351.27" width="1.38" height="133"/>
      <rect class="cls-93" x="1495.7" y="351.27" width="1.38" height="133"/>
      <rect class="cls-72" x="1497.08" y="351.27" width="1.38" height="133"/>
      <rect class="cls-43" x="1498.47" y="351.27" width="1.38" height="133"/>
      <rect class="cls-71" x="1499.85" y="351.27" width="1.38" height="133"/>
      <rect class="cls-25" x="1501.24" y="351.27" width="1.38" height="133"/>
      <rect class="cls-27" x="1502.62" y="351.27" width="1.38" height="133"/>
      <rect class="cls-16" x="1504" y="351.27" width="1.38" height="133"/>
      <rect class="cls-95" x="1505.39" y="351.27" width="1.38" height="133"/>
      <rect class="cls-60" x="1506.77" y="351.27" width="1.38" height="133"/>
      <rect class="cls-3" x="1508.15" y="351.27" width="1.38" height="133"/>
      <rect class="cls-34" x="1509.54" y="351.27" width="1.38" height="133"/>
      <rect class="cls-8" x="1510.92" y="351.27" width="1.38" height="133"/>
      <rect class="cls-85" x="1512.3" y="351.27" width="1.38" height="133"/>
      <rect class="cls-96" x="1513.69" y="351.27" width="1.38" height="133"/>
      <rect class="cls-62" x="1515.07" y="351.27" width="1.38" height="133"/>
      <rect class="cls-6" x="1516.45" y="351.27" width="1.38" height="133"/>
      <rect class="cls-111" x="1517.84" y="351.27" width="1.38" height="133"/>
      <rect class="cls-113" x="1519.22" y="351.27" width="1.38" height="133"/>
      <rect class="cls-100" x="1520.6" y="351.27" width="1.38" height="133"/>
      <rect class="cls-51" x="1521.99" y="351.27" width="1.38" height="133"/>
      <rect class="cls-67" x="1523.37" y="351.27" width="1.38" height="133"/>
      <rect class="cls-58" x="1524.75" y="351.27" width="1.38" height="133"/>
      <rect class="cls-61" x="1526.14" y="351.27" width="1.38" height="133"/>
      <rect class="cls-24" x="1527.52" y="351.27" width="1.38" height="133"/>
      <rect class="cls-11" x="1528.9" y="351.27" width="1.38" height="133"/>
      <rect class="cls-52" x="1530.29" y="351.27" width="1.38" height="133"/>
      <rect class="cls-31" x="1531.67" y="351.27" width="1.38" height="133"/>
      <rect class="cls-28" x="1533.05" y="351.27" width="1.38" height="133"/>
      <rect class="cls-65" x="1534.44" y="351.27" width="1.38" height="133"/>
      <rect class="cls-122" x="1535.82" y="351.27" width="1.38" height="133"/>
      <rect class="cls-22" x="1537.2" y="351.27" width="1.38" height="133"/>
      <rect class="cls-125" x="1538.59" y="351.27" width="1.38" height="133"/>
      <rect class="cls-89" x="1539.97" y="351.27" width="1.38" height="133"/>
      <rect class="cls-32" x="1541.35" y="351.27" width="1.38" height="133"/>
      <rect class="cls-106" x="1542.74" y="351.27" width="1.38" height="133"/>
      <rect class="cls-101" x="1544.12" y="351.27" width="1.38" height="133"/>
      <rect class="cls-120" x="1545.5" y="351.27" width="1.38" height="133"/>
      <rect class="cls-103" x="1546.89" y="351.27" width="1.38" height="133"/>
      <rect class="cls-119" x="1548.27" y="351.27" width="1.38" height="133"/>
      <rect class="cls-44" x="1549.65" y="351.27" width="1.38" height="133"/>
      <rect class="cls-81" x="1551.04" y="351.27" width="1.38" height="133"/>
      <rect class="cls-88" x="1552.42" y="351.27" width="1.38" height="133"/>
      <rect class="cls-104" x="1553.81" y="351.27" width="1.38" height="133"/>
      <rect class="cls-97" x="1555.19" y="351.27" width="1.38" height="133"/>
      <rect class="cls-5" x="1556.57" y="351.27" width="1.38" height="133"/>
      <rect class="cls-66" x="1557.96" y="351.27" width="1.38" height="133"/>
      <rect class="cls-47" x="1559.34" y="351.27" width="1.38" height="133"/>
      <rect class="cls-98" x="1560.72" y="351.27" width="1.38" height="133"/>
      <rect class="cls-74" x="1562.11" y="351.27" width="1.38" height="133"/>
      <rect class="cls-54" x="1563.49" y="351.27" width="1.38" height="133"/>
      <rect class="cls-102" x="1564.87" y="351.27" width="1.38" height="133"/>
      <rect class="cls-91" x="1566.26" y="351.27" width="1.38" height="133"/>
      <rect class="cls-23" x="1567.64" y="351.27" width="1.38" height="133"/>
      <rect class="cls-126" x="1569.02" y="351.27" width="1.38" height="133"/>
      <rect class="cls-33" x="1570.41" y="351.27" width="1.38" height="133"/>
      <rect class="cls-46" x="1571.79" y="351.27" width="1.38" height="133"/>
      <rect class="cls-48" x="1573.17" y="351.27" width="1.38" height="133"/>
      <rect class="cls-63" x="1574.56" y="351.27" width="1.38" height="133"/>
      <rect class="cls-26" x="1575.94" y="351.27" width="1.38" height="133"/>
      <rect class="cls-92" x="1577.32" y="351.27" width="1.38" height="133"/>
      <rect class="cls-110" x="1578.71" y="351.27" width="1.38" height="133"/>
      <rect class="cls-40" x="1580.09" y="351.27" width="1.38" height="133"/>
      <rect class="cls-117" x="1581.47" y="351.27" width="1.38" height="133"/>
      <rect class="cls-87" x="1582.86" y="351.27" width="1.38" height="133"/>
      <rect class="cls-118" x="1584.24" y="351.27" width="1.38" height="133"/>
      <rect class="cls-75" x="1585.62" y="351.27" width="1.38" height="133"/>
    </g>
    <ellipse class="cls-36" cx="1562.06" cy="476.3" rx="17.47" ry="9.52" transform="translate(442.08 1664.8) rotate(-63.66)"/>
  </g>
</svg>